<svg xmlns="http://www.w3.org/2000/svg" width="300" height="300" viewBox="0 0 300 300"><path fill="#3E444E" d="M288.103 29.19H11.898c-7.054 0-8.523 1.468-8.523 8.522v172.956c0 7.054 1.47 8.523 8.523 8.523h276.204c7.054 0 8.522-1.47 8.522-8.522V37.713c0-7.054-1.468-8.524-8.52-8.524z"/><path fill="#DCDFE2" d="M14.22 40.565h271.56V204.75H14.22z"/><path fill="#BFBFBF" d="M193.695 252.835c-17-7.26-16.82-33.646-16.82-33.646h-52.95c-2.125 27.803-19.48 33.645-19.48 33.645H97.54v4.604h103.064v-4.605h-6.91z"/><circle cx="150" cy="212.001" r="3.214" fill="#D8D8D8"/></svg>