<svg xmlns="http://www.w3.org/2000/svg" width="300" height="300" viewBox="0 0 300 300"><path fill="#323842" d="M196.44 9.176h-89.745c-12.793 0-23.16 6.51-23.16 19.3V275.2c0 12.79 10.367 19.3 23.16 19.3h89.744c12.79 0 23.16-6.51 23.16-19.3V28.477c0-12.79-10.37-19.3-23.16-19.3z"/><g fill="#D8D8D8"><path d="M197.115 6.04H182.66c-.782 0-1.417.782-1.417 1.75v1.386H198.532V7.79c0-.968-.635-1.75-1.417-1.75zM80.4 67.854V78.77c0 .783.78 1.418 1.748 1.418h1.386v-13.75h-1.386c-.967 0-1.75.634-1.75 1.416zM80.4 41.076V57.54c0 .783.78 1.418 1.748 1.418h1.386v-19.3h-1.386c-.967 0-1.75.636-1.75 1.418zM80.4 88.48V99.4c0 .782.78 1.417 1.748 1.417h1.386v-13.75h-1.386c-.967 0-1.75.635-1.75 1.416z"/></g><path fill="#DCDEE2" d="M90.772 39.658h121.59v221.228H90.772z"/><g fill="#454B53"><circle cx="152.131" cy="20.6" r="3.377"/><path d="M165.56 27.193h-27.984c-1.378 0-2.493 1.116-2.493 2.493 0 1.378 1.115 2.494 2.493 2.494h27.983c1.378 0 2.494-1.116 2.494-2.494 0-1.377-1.116-2.493-2.495-2.493zM151.568 274.52c-2.194 0-3.976 1.782-3.976 3.976s1.78 3.976 3.976 3.976c2.192 0 3.974-1.78 3.974-3.976 0-2.193-1.78-3.975-3.974-3.975z"/><path d="M151.568 268.967c-5.263 0-9.53 4.268-9.53 9.53s4.268 9.53 9.53 9.53 9.528-4.27 9.528-9.53c0-5.263-4.266-9.53-9.528-9.53zm0 14.194c-2.575 0-4.665-2.09-4.665-4.664s2.09-4.665 4.665-4.665c2.574 0 4.664 2.092 4.664 4.666s-2.09 4.665-4.664 4.665z"/></g></svg>